HIERARCHY
ROOT Hips
{
	OFFSET 0.000000 0.000000 0.000000
	CHANNELS 6 Xposition Yposition Zposition Zrotation Yrotation Xrotation 
	JOINT LowerBack
	{
		OFFSET 0.000000 0.000000 0.000000
		CHANNELS 3 Zrotation Yrotation Xrotation
		JOINT Spine
		{
			OFFSET 0.028270 2.035590 -0.193380
			CHANNELS 3 Zrotation Yrotation Xrotation
			JOINT Spine1
			{
				OFFSET 0.056720 2.048850 -0.042750
				CHANNELS 3 Zrotation Yrotation Xrotation
				JOINT Neck
				{
					OFFSET 0.000000 0.000000 0.000000
					CHANNELS 3 Zrotation Yrotation Xrotation
					JOINT Neck1
					{
						OFFSET -0.054170 1.746240 0.172020
						CHANNELS 3 Zrotation Yrotation Xrotation
						JOINT Head
						{
							OFFSET 0.104070 1.761360 -0.123970
							CHANNELS 3 Zrotation Yrotation Xrotation
							End Site
							{
								OFFSET 0.000000 0.000000 0.000000
							}
						}
					}
				}
				JOINT LeftShoulder
				{
					OFFSET 0.000000 0.000000 0.000000
					CHANNELS 3 Zrotation Yrotation Xrotation
					JOINT LeftArm
					{
						OFFSET 3.362410 1.200890 -0.311210
						CHANNELS 3 Zrotation Yrotation Xrotation
						JOINT LeftForeArm
						{
							OFFSET 4.983000 -0.000000 -0.000000
							CHANNELS 3 Zrotation Yrotation Xrotation
							JOINT LeftHand
							{
								OFFSET 3.483560 -0.000000 -0.000000
								CHANNELS 3 Zrotation Yrotation Xrotation
								JOINT LeftFingerBase
								{
									OFFSET 0.000000 0.000000 0.000000
									CHANNELS 3 Zrotation Yrotation Xrotation
									JOINT LeftHandIndex1
									{
										OFFSET 0.715260 -0.000000 -0.000000
										CHANNELS 3 Zrotation Yrotation Xrotation
										End Site
										{
											OFFSET 0.000000 0.000000 0.000000
										}
									}
								}
								JOINT LThumb
								{
									OFFSET 0.000000 0.000000 0.000000
									CHANNELS 3 Zrotation Yrotation Xrotation
									End Site
									{
										OFFSET 0.000000 0.000000 0.000000
									}
								}
							}
						}
					}
				}
				JOINT RightShoulder
				{
					OFFSET 0.000000 0.000000 0.000000
					CHANNELS 3 Zrotation Yrotation Xrotation
					JOINT RightArm
					{
						OFFSET -3.136600 1.374050 -0.404650
						CHANNELS 3 Zrotation Yrotation Xrotation
						JOINT RightForeArm
						{
							OFFSET -5.241900 -0.000000 -0.000000
							CHANNELS 3 Zrotation Yrotation Xrotation
							JOINT RightHand
							{
								OFFSET -3.444170 -0.000000 -0.000000
								CHANNELS 3 Zrotation Yrotation Xrotation
								JOINT RightFingerBase
								{
									OFFSET 0.000000 0.000000 0.000000
									CHANNELS 3 Zrotation Yrotation Xrotation
									JOINT RightHandIndex1
									{
										OFFSET -0.622530 -0.000000 -0.000000
										CHANNELS 3 Zrotation Yrotation Xrotation
										End Site
										{
											OFFSET 0.000000 0.000000 0.000000
										}
									}
								}
								JOINT RThumb
								{
									OFFSET 0.000000 0.000000 0.000000
									CHANNELS 3 Zrotation Yrotation Xrotation
									End Site
									{
										OFFSET 0.000000 0.000000 0.000000
									}
								}
							}
						}
					}
				}
			}
		}
	}
}
}
MOTION
Frames: 18
Frame Time: 0.008333
1.240193 16.613112 0.730006 19.578291 69.448985 42.297982 6.699797 -1.761895 7.040621 0.394815 -1.721847 -1.163746 -6.872088 -1.740912 1.320923 8.517497 -0.941697 1.548059 -5.108613 -0.403871 2.054495 0.000000 0.000000 0.000000 -6.248623 -0.519384 1.236789 -45.045725 -26.159111 5.455613 -1.206265 -71.120695 -0.042160 9.497731 -3.323545 -0.311713 -0.232022 0.360332 -0.000000 0.000000 0.000000 0.000000 0.000000 0.000000 0.000000 20.895242 -4.072593 0.680907 55.612129 0.182683 -12.247980 2.988869 27.535003 0.006251 0.541628 4.312566 0.018234 0.070171 -0.053812 -0.000000 0.000000 0.000000 0.000000 0.000000 0.000000 0.000000 
1.403125 16.581202 0.825268 18.298135 69.190562 40.665667 6.918964 -1.773459 7.395588 0.404093 -1.715815 -1.114513 -7.004414 -1.740308 1.264679 9.097841 -0.188369 1.876558 -5.204451 -0.408818 2.132496 0.000000 0.000000 0.000000 -6.214221 -0.687516 1.272854 -45.217703 -25.397036 4.996013 -1.278420 -69.921402 -0.043498 10.187987 -3.509768 -0.350229 -0.236157 0.349291 -0.000000 0.000000 0.000000 0.000000 0.000000 0.000000 0.000000 21.808608 -3.627263 0.642880 54.934619 1.233380 -13.881554 2.924594 26.175798 0.005497 -0.789018 4.518112 -0.034179 0.073506 -0.053433 -0.000000 0.000000 0.000000 0.000000 0.000000 0.000000 0.000000 
1.561588 16.557136 0.922236 16.964966 68.938331 39.016096 7.110864 -1.790103 7.740271 0.410737 -1.714711 -1.065066 -7.128500 -1.745091 1.220020 9.732628 0.596548 2.219515 -5.281239 -0.412554 2.214627 0.000000 0.000000 0.000000 -6.107725 -0.838924 1.299271 -45.509124 -24.645125 4.620320 -1.356380 -68.504458 -0.045180 11.029090 -3.674796 -0.393955 -0.240635 0.336576 -0.000000 0.000000 0.000000 0.000000 0.000000 0.000000 0.000000 22.684239 -3.156898 0.607596 54.375235 2.444481 -15.616723 2.839516 24.677078 0.004379 -2.305469 4.594962 -0.096497 0.076112 -0.052967 -0.000000 0.000000 0.000000 0.000000 0.000000 0.000000 0.000000 
1.716021 16.540877 1.021513 15.649123 68.676171 37.422193 7.254957 -1.811040 8.060919 0.411624 -1.718784 -1.015952 -7.240162 -1.755041 1.193407 10.397142 1.371610 2.559302 -5.335694 -0.414953 2.296421 0.000000 0.000000 0.000000 -5.943503 -0.969505 1.317786 -45.884481 -23.907773 4.347456 -1.438326 -66.876611 -0.046813 11.966752 -3.812569 -0.440493 -0.244562 0.322130 -0.000000 0.000000 0.000000 0.000000 0.000000 0.000000 0.000000 23.485663 -2.689867 0.574930 53.979231 3.825980 -17.443583 2.731139 23.077532 0.002861 -4.007654 4.564451 -0.164617 0.077766 -0.052973 -0.000000 0.000000 0.000000 0.000000 0.000000 0.000000 0.000000 
1.867070 16.532272 1.123713 14.421837 68.389652 35.957955 7.331807 -1.834434 8.341662 0.403274 -1.727582 -0.971094 -7.337475 -1.769531 1.181372 11.072064 2.147236 2.894231 -5.365037 -0.416015 2.377726 0.000000 0.000000 0.000000 -5.742494 -1.075232 1.337589 -46.300774 -23.189050 4.203463 -1.524691 -65.044866 -0.047961 12.928377 -3.915601 -0.485843 -0.247258 0.306015 -0.000000 0.000000 0.000000 0.000000 0.000000 0.000000 0.000000 24.182455 -2.197978 0.543530 53.792131 5.287074 -19.357579 2.595956 21.499611 0.000882 -5.863460 4.442015 -0.233241 0.078077 -0.053805 0.000000 0.000000 0.000000 0.000000 0.000000 0.000000 0.000000 
2.015365 16.531142 1.229064 13.328095 68.068405 34.673340 7.333068 -1.858124 8.570740 0.384737 -1.740258 -0.929981 -7.417264 -1.787074 1.191895 11.724479 2.857473 3.200741 -5.369804 -0.415834 2.452289 0.000000 0.000000 0.000000 -5.524383 -1.156067 1.358266 -46.725907 -22.486636 4.200718 -1.614472 -63.034546 -0.048214 13.824305 -3.976440 -0.524706 -0.247899 0.288350 -0.000000 0.000000 0.000000 0.000000 0.000000 0.000000 0.000000 24.747875 -1.736438 0.511651 53.840086 6.869928 -21.280586 2.438902 19.968011 -0.001541 -7.839166 4.295316 -0.301066 0.077177 -0.055790 0.000000 0.000000 0.000000 0.000000 0.000000 0.000000 0.000000 
2.161682 16.537229 1.337729 12.395331 67.704638 33.603234 7.256760 -1.879124 8.736102 0.355851 -1.755123 -0.894252 -7.478149 -1.805597 1.226116 12.326946 3.472927 3.467146 -5.351592 -0.414595 2.517057 0.000000 0.000000 0.000000 -5.313683 -1.209602 1.383419 -47.127386 -21.801856 4.355662 -1.708892 -60.872493 -0.047276 14.560950 -3.987294 -0.551480 -0.246091 0.269395 -0.000000 0.000000 0.000000 0.000000 0.000000 0.000000 0.000000 25.165295 -1.323239 0.476047 54.142127 8.555932 -23.131073 2.266735 18.547631 -0.004361 -9.863275 4.183558 -0.368891 0.075263 -0.058928 0.000000 0.000000 0.000000 0.000000 0.000000 0.000000 0.000000 
2.306683 16.550282 1.449576 11.631446 67.294216 32.762036 7.106580 -1.893104 8.826571 0.317099 -1.768876 -0.870280 -7.520410 -1.822106 1.269140 12.865987 4.033024 3.706562 -5.310970 -0.412522 2.575864 0.000000 0.000000 0.000000 -5.132369 -1.246639 1.423155 -47.480786 -21.114252 4.680930 -1.811253 -58.593262 -0.045000 15.049983 -3.941265 -0.561058 -0.241869 0.249522 -0.000000 0.000000 0.000000 0.000000 0.000000 0.000000 0.000000 25.425098 -0.904271 0.433365 54.715583 10.196709 -24.792586 2.085070 17.404143 -0.007489 -11.834782 4.106236 -0.434816 0.072543 -0.062817 0.000000 0.000000 0.000000 0.000000 0.000000 0.000000 0.000000 
2.451034 16.570013 1.564353 11.017132 66.833580 32.140332 6.894908 -1.897226 8.837512 0.271070 -1.778947 -0.856570 -7.542817 -1.833535 1.327690 13.314162 4.471168 3.897816 -5.253120 -0.409876 2.622938 0.000000 0.000000 0.000000 -4.998827 -1.263284 1.472894 -47.772886 -20.425037 5.177611 -1.922811 -56.239796 -0.041384 15.214091 -3.836681 -0.550037 -0.235342 0.229096 -0.000000 0.000000 0.000000 0.000000 0.000000 0.000000 0.000000 25.530429 -0.544739 0.379387 55.549437 11.863283 -26.136514 1.909815 16.499076 -0.010667 -13.650576 4.126505 -0.504639 0.069927 -0.067213 -0.000000 0.000000 0.000000 0.000000 0.000000 0.000000 0.000000 
2.595214 16.596072 1.681638 10.523265 66.321255 31.715882 6.634791 -1.887893 8.766919 0.219974 -1.781421 -0.855222 -7.545881 -1.836070 1.395451 13.660698 4.786176 4.041883 -5.182017 -0.406905 2.658611 0.000000 0.000000 0.000000 -4.926021 -1.262684 1.533618 -47.998660 -19.723222 5.843525 -2.046085 -53.855803 -0.036583 14.998485 -3.676291 -0.517815 -0.226981 0.208475 0.000000 0.000000 0.000000 0.000000 0.000000 0.000000 0.000000 25.493587 -0.242455 0.310685 56.628835 13.515598 -27.045381 1.753042 15.865143 -0.013611 -15.195115 4.249059 -0.579056 0.068161 -0.071733 -0.000000 0.000000 0.000000 0.000000 0.000000 0.000000 0.000000 
2.739566 16.628069 1.801043 10.114442 65.756483 31.456115 6.338559 -1.861371 8.616108 0.165585 -1.771692 -0.870459 -7.531226 -1.825653 1.457313 13.908697 5.018506 4.154174 -5.100099 -0.403817 2.687236 0.000000 0.000000 0.000000 -4.916815 -1.257528 1.608734 -48.163324 -18.982408 6.666315 -2.183404 -51.487181 -0.030861 14.375333 -3.466736 -0.466583 -0.217394 0.187946 0.000000 0.000000 0.000000 0.000000 0.000000 0.000000 0.000000 25.331199 0.046933 0.225602 57.932672 15.046486 -27.390118 1.622449 15.580513 -0.016067 -16.367809 4.419165 -0.649367 0.067746 -0.076008 -0.000000 0.000000 0.000000 0.000000 0.000000 0.000000 0.000000 
2.884245 16.665556 1.922223 9.753460 65.138114 31.323500 6.017359 -1.815474 8.393180 0.109491 -1.746034 -0.901101 -7.500164 -1.798613 1.512031 14.058521 5.155188 4.230922 -5.012217 -0.400798 2.707689 0.000000 0.000000 0.000000 -4.967756 -1.246457 1.693766 -48.277493 -18.197377 7.626309 -2.334944 -49.174153 -0.024550 13.345668 -3.218100 -0.401042 -0.207123 0.167659 0.000000 0.000000 0.000000 0.000000 0.000000 0.000000 0.000000 25.070052 0.305565 0.123557 59.419641 16.476425 -27.105592 1.527090 15.588665 -0.017783 -17.089210 4.640064 -0.712370 0.069038 -0.080000 -0.000000 0.000000 0.000000 0.000000 0.000000 0.000000 0.000000 
3.029252 16.707977 2.044867 9.407355 64.465308 31.279451 5.678098 -1.748284 8.109268 0.052146 -1.700756 -0.947142 -7.455188 -1.751593 1.552870 14.121877 5.216762 4.278721 -4.921538 -0.397972 2.721685 0.000000 0.000000 0.000000 -5.067065 -1.232089 1.786747 -48.356211 -17.356509 8.696956 -2.500087 -46.949996 -0.018056 11.940743 -2.938759 -0.326892 -0.196691 0.147670 0.000000 0.000000 0.000000 0.000000 0.000000 0.000000 0.000000 24.737019 0.549865 0.006015 61.045431 17.775001 -26.153001 1.469952 15.873615 -0.018629 -17.307998 4.891699 -0.760762 0.071771 -0.083761 -0.000000 0.000000 0.000000 0.000000 0.000000 0.000000 0.000000 
3.174500 16.754736 2.168799 9.051826 63.737280 31.289899 5.323835 -1.659060 7.778985 -0.006894 -1.633233 -1.006177 -7.399295 -1.682115 1.579106 14.112309 5.204968 4.296975 -4.832077 -0.395442 2.728847 0.000000 0.000000 0.000000 -5.197285 -1.211524 1.883084 -48.415624 -16.458650 9.847143 -2.676441 -44.838161 -0.011809 10.218528 -2.633452 -0.250234 -0.186509 0.127968 0.000000 0.000000 0.000000 0.000000 0.000000 0.000000 0.000000 24.363609 0.773249 -0.124170 62.759104 18.959759 -24.530088 1.452157 16.376713 -0.018574 -17.007676 5.182557 -0.791843 0.075249 -0.087491 -0.000000 0.000000 0.000000 0.000000 0.000000 0.000000 0.000000 
3.319678 16.805173 2.293947 8.675678 62.952909 31.327772 4.952324 -1.548130 7.417979 -0.069129 -1.542050 -1.077986 -7.335684 -1.589282 1.581635 14.049960 5.164908 4.299281 -4.744224 -0.393217 2.732756 0.000000 0.000000 0.000000 -5.336872 -1.192355 1.982460 -48.471454 -15.486570 11.040680 -2.860842 -42.855326 -0.006252 8.258444 -2.298494 -0.176373 -0.176945 0.108556 0.000000 0.000000 0.000000 0.000000 0.000000 0.000000 0.000000 23.966788 1.015857 -0.262369 64.520256 19.978624 -22.278758 1.467708 17.110697 -0.017725 -16.200302 5.502558 -0.800515 0.078213 -0.091443 -0.000000 0.000000 0.000000 0.000000 0.000000 0.000000 0.000000 
3.464466 16.858543 2.420311 8.276490 62.110598 31.373918 4.558655 -1.417128 7.042779 -0.136703 -1.427317 -1.158382 -7.268095 -1.473226 1.564515 13.949927 5.092389 4.281491 -4.661123 -0.391332 2.731949 0.000000 0.000000 0.000000 -5.465914 -1.165327 2.079930 -48.534014 -14.452294 12.245987 -3.048831 -41.002884 -0.001774 6.154285 -1.924265 -0.110113 -0.168302 0.089463 0.000000 0.000000 0.000000 0.000000 0.000000 0.000000 0.000000 23.572458 1.262796 -0.404139 66.284617 20.876093 -19.454204 1.512678 18.014081 -0.016220 -14.941705 5.884132 -0.788878 0.079534 -0.095973 -0.000000 0.000000 0.000000 0.000000 0.000000 0.000000 0.000000 
3.608589 16.914092 2.547930 7.861809 61.208262 31.417426 4.135103 -1.268731 6.668195 -0.212175 -1.290557 -1.244436 -7.199969 -1.335661 1.528419 13.827082 5.000688 4.245787 -4.583860 -0.389773 2.726761 0.000000 0.000000 0.000000 -5.566580 -1.127211 2.172948 -48.610259 -13.359791 13.431633 -3.235495 -39.277833 0.001330 4.005099 -1.495057 -0.055859 -0.160835 0.070804 0.000000 0.000000 0.000000 0.000000 0.000000 0.000000 0.000000 23.195048 1.518647 -0.544541 68.021142 21.665953 -16.129546 1.579591 19.066070 -0.014256 -13.320041 6.343712 -0.757536 0.078248 -0.101431 -0.000000 0.000000 0.000000 0.000000 0.000000 0.000000 0.000000 
3.751697 16.971013 2.676858 7.446507 60.243076 31.454578 3.673152 -1.106108 6.307091 -0.298059 -1.134146 -1.333145 -7.134110 -1.179115 1.475462 13.692006 4.895513 4.193072 -4.513372 -0.388531 2.717185 0.000000 0.000000 0.000000 -5.625940 -1.077776 2.259083 -48.703301 -12.211759 14.567444 -3.415522 -37.673620 0.002905 1.907135 -0.995096 -0.017913 -0.154703 0.052757 0.000000 0.000000 0.000000 0.000000 0.000000 0.000000 0.000000 22.844546 1.780265 -0.678743 69.707428 22.373584 -12.378863 1.660018 20.247399 -0.012039 -11.454912 6.889078 -0.706991 0.073949 -0.108143 -0.000000 0.000000 0.000000 0.000000 0.000000 0.000000 0.000000 
